<?xml version="1.0" encoding="UTF-8"?>
<svg xmlns="http://www.w3.org/2000/svg" xmlns:xlink="http://www.w3.org/1999/xlink" width="57px" height="60px" viewBox="0 0 60 63" version="1.1">
    <defs>
        <linearGradient id="linear0" gradientUnits="userSpaceOnUse" x1="184.396" y1="0" x2="184.396" y2="390.737" gradientTransform="matrix(0.162602,0,0,0.161125,0,0)">
            <stop offset="0" style="stop-color:rgb(7.45098%,48.235294%,87.058824%);stop-opacity:1;" />
            <stop offset="1" style="stop-color:rgb(7.45098%,30.196078%,87.058824%);stop-opacity:1;" />
        </linearGradient>
    </defs>
    <g id="surface1">
        <path style=" stroke:none;fill-rule:evenodd;fill:url(#linear0);" d="M 6.367188 0.09375 C 6.210938 0.15625 5.9375 0.367188 5.761719 0.566406 L 5.433594 0.925781 L 5.433594 21.421875 L 5.128906 22.3125 C 4.746094 23.414062 4.433594 23.910156 3.640625 24.699219 C 2.9375 25.398438 2.300781 25.769531 1.125 26.183594 C 0.0507812 26.558594 0.0546875 26.546875 0.0117188 28.628906 C -0.0351562 30.886719 0.0078125 31.003906 1.058594 31.453125 C 3.503906 32.5 4.175781 33.144531 5.144531 35.363281 C 5.472656 36.117188 5.539062 37.792969 5.546875 45.804688 C 5.554688 53 5.570312 53.472656 5.785156 54.316406 C 6.054688 55.367188 6.15625 55.652344 6.628906 56.640625 C 8.246094 60.03125 11.589844 62.421875 15.296875 62.835938 C 16.050781 62.917969 21.808594 62.957031 32.957031 62.957031 C 50.308594 62.957031 51.230469 62.929688 52.160156 62.449219 C 52.347656 62.351562 52.597656 62.273438 52.714844 62.273438 C 53.042969 62.269531 54.816406 61.300781 55.597656 60.695312 C 56.515625 59.984375 57.128906 59.371094 57.769531 58.53125 C 58.339844 57.789062 59.394531 55.820312 59.394531 55.5 C 59.394531 55.390625 59.507812 55.050781 59.648438 54.742188 C 59.886719 54.210938 59.902344 53.984375 59.949219 50.558594 C 59.984375 47.953125 59.960938 46.863281 59.867188 46.683594 C 59.734375 46.4375 59.714844 46.4375 55.523438 46.4375 C 51.753906 46.4375 51.300781 46.417969 51.15625 46.246094 C 50.945312 45.996094 50.929688 37 51.140625 35.9375 C 51.527344 33.980469 53.167969 32.179688 54.976562 31.730469 C 55.308594 31.644531 55.652344 31.441406 55.9375 31.160156 L 56.382812 30.71875 L 56.382812 28.988281 C 56.382812 27.300781 56.375 27.25 56.078125 26.867188 C 55.914062 26.648438 55.71875 26.472656 55.644531 26.46875 C 55.574219 26.464844 55.304688 26.363281 55.050781 26.242188 C 54.796875 26.121094 54.523438 26.019531 54.449219 26.015625 C 54.207031 26.011719 53.296875 25.386719 52.746094 24.851562 C 52.121094 24.238281 51.335938 22.785156 51.152344 21.894531 C 51.0625 21.457031 51 17.949219 50.953125 10.898438 L 50.882812 0.546875 L 50.621094 0.285156 L 50.355469 0.0234375 L 28.503906 0.00390625 C 14.429688 -0.0117188 6.550781 0.0195312 6.367188 0.09375 Z M 46.078125 5.015625 C 46.304688 5.242188 46.308594 5.402344 46.316406 13.824219 C 46.320312 18.539062 46.367188 22.632812 46.421875 22.914062 C 46.546875 23.554688 46.835938 24.429688 47.128906 25.050781 C 47.25 25.308594 47.351562 25.558594 47.351562 25.601562 C 47.351562 25.644531 47.449219 25.820312 47.566406 25.988281 C 47.6875 26.160156 47.949219 26.558594 48.152344 26.875 C 48.355469 27.191406 48.777344 27.714844 49.09375 28.035156 C 49.40625 28.359375 49.679688 28.730469 49.695312 28.855469 C 49.714844 29 49.496094 29.324219 49.089844 29.75 C 48.0625 30.820312 47.222656 32.277344 46.648438 33.988281 C 46.339844 34.917969 46.230469 36.640625 46.097656 42.625 C 46.03125 45.632812 45.992188 46.234375 45.847656 46.324219 C 45.738281 46.390625 41.34375 46.433594 34.542969 46.433594 C 25.507812 46.4375 23.386719 46.464844 23.285156 46.585938 C 23.203125 46.683594 23.144531 47.726562 23.121094 49.484375 C 23.097656 51.503906 23.035156 52.460938 22.894531 53.09375 C 22.324219 55.667969 20.511719 57.609375 18.296875 58.023438 C 17.480469 58.179688 16.015625 58.171875 15.261719 58.011719 C 14.355469 57.820312 13.117188 57.117188 12.320312 56.347656 C 11.824219 55.867188 11.226562 55.046875 11.226562 54.851562 C 11.226562 54.78125 11.152344 54.667969 11.0625 54.59375 C 10.972656 54.519531 10.835938 54.1875 10.757812 53.859375 C 10.679688 53.53125 10.558594 53.160156 10.484375 53.035156 C 10.394531 52.875 10.339844 50.183594 10.296875 44.027344 C 10.246094 35.898438 10.226562 35.199219 10.027344 34.5625 C 9.664062 33.402344 9.214844 32.285156 8.941406 31.867188 C 8.285156 30.851562 7.546875 29.878906 7.160156 29.5 C 6.648438 29.007812 6.671875 28.800781 7.3125 28.140625 C 8.09375 27.335938 9.371094 25.308594 9.371094 24.871094 C 9.371094 24.769531 9.425781 24.628906 9.496094 24.5625 C 9.632812 24.425781 10.046875 22.929688 10.1875 22.054688 C 10.238281 21.738281 10.285156 17.808594 10.289062 13.316406 C 10.292969 8.824219 10.332031 5.066406 10.367188 4.96875 C 10.433594 4.804688 12.105469 4.785156 28.144531 4.785156 C 45.691406 4.785156 45.847656 4.789062 46.078125 5.015625 Z M 14.351562 9.488281 C 14.210938 9.574219 14.171875 9.960938 14.140625 11.472656 C 14.105469 13.140625 14.121094 13.367188 14.300781 13.515625 C 14.472656 13.65625 16.457031 13.683594 28.0625 13.710938 C 37.996094 13.730469 41.703125 13.707031 41.9375 13.609375 L 42.257812 13.480469 L 42.257812 11.648438 C 42.257812 10.609375 42.207031 9.726562 42.136719 9.597656 C 42.019531 9.378906 41.742188 9.375 28.269531 9.378906 C 19.824219 9.378906 14.457031 9.421875 14.351562 9.488281 Z M 14.46875 18.886719 L 14.175781 18.96875 L 14.175781 20.796875 C 14.175781 21.804688 14.214844 22.71875 14.261719 22.828125 C 14.335938 23.015625 14.601562 23.03125 17.476562 23.03125 C 20.351562 23.03125 20.617188 23.015625 20.695312 22.828125 C 20.742188 22.71875 20.777344 21.804688 20.777344 20.796875 L 20.777344 18.96875 L 20.488281 18.886719 C 20.328125 18.84375 18.972656 18.808594 17.476562 18.808594 C 15.980469 18.808594 14.625 18.84375 14.46875 18.886719 Z M 24.6875 18.902344 C 24.433594 19.003906 24.425781 19.050781 24.425781 20.722656 C 24.425781 21.667969 24.476562 22.574219 24.539062 22.734375 L 24.652344 23.03125 L 33.316406 23.03125 C 39.898438 23.03125 42.011719 22.996094 42.117188 22.894531 C 42.214844 22.796875 42.257812 22.1875 42.257812 20.890625 C 42.257812 19.160156 42.238281 19.015625 42.03125 18.902344 C 41.75 18.753906 25.0625 18.753906 24.6875 18.902344 Z M 14.300781 28.488281 C 14.035156 28.75 14.035156 31.808594 14.300781 32.183594 L 14.480469 32.4375 L 30.800781 32.4375 L 30.925781 32.125 C 31.089844 31.710938 30.972656 28.695312 30.785156 28.46875 C 30.671875 28.332031 29.390625 28.308594 22.566406 28.308594 C 15.371094 28.308594 14.464844 28.328125 14.300781 28.488281 Z M 34.871094 28.445312 C 34.773438 28.542969 34.730469 29.132812 34.730469 30.375 C 34.730469 31.613281 34.773438 32.207031 34.871094 32.300781 C 34.972656 32.402344 35.953125 32.4375 38.566406 32.4375 C 42.117188 32.4375 42.128906 32.4375 42.308594 32.183594 C 42.453125 31.980469 42.488281 31.582031 42.488281 30.238281 C 42.488281 28.683594 42.46875 28.535156 42.265625 28.425781 C 41.929688 28.25 35.050781 28.265625 34.871094 28.445312 Z M 27.070312 37.71875 C 20.085938 37.75 14.328125 37.816406 14.273438 37.871094 C 14.132812 38.007812 14.09375 41.410156 14.230469 41.617188 C 14.328125 41.769531 16.019531 41.792969 28.074219 41.820312 C 37.476562 41.839844 41.875 41.8125 42.03125 41.730469 C 42.242188 41.617188 42.257812 41.480469 42.257812 39.792969 C 42.257812 38.472656 42.21875 37.941406 42.109375 37.855469 C 41.882812 37.667969 40.613281 37.65625 27.070312 37.71875 Z M 14.242188 46.714844 C 14.042969 46.953125 14.117188 50.382812 14.328125 50.589844 C 14.441406 50.703125 15.140625 50.75 17.070312 50.777344 C 19.582031 50.8125 19.664062 50.804688 19.789062 50.578125 C 19.871094 50.425781 19.902344 49.671875 19.882812 48.476562 L 19.851562 46.609375 L 17.117188 46.578125 C 14.835938 46.554688 14.359375 46.574219 14.242188 46.714844 Z M 54.96875 51.207031 C 55.269531 51.414062 55.300781 51.894531 55.09375 53.078125 C 54.691406 55.371094 52.621094 57.535156 50.371094 58.011719 C 49.953125 58.101562 46.179688 58.140625 38.039062 58.140625 C 27.253906 58.140625 26.296875 58.125 26.230469 57.953125 C 26.1875 57.847656 26.226562 57.679688 26.3125 57.578125 C 26.519531 57.335938 26.996094 56.304688 27.300781 55.445312 C 27.550781 54.730469 28.015625 52.371094 28.015625 51.796875 C 28.015625 51.617188 28.070312 51.371094 28.132812 51.25 C 28.25 51.03125 28.523438 51.027344 41.484375 51.027344 C 53.269531 51.027344 54.738281 51.046875 54.96875 51.207031 Z M 54.96875 51.207031 " />
    </g>
</svg>